<svg xmlns="http://www.w3.org/2000/svg"  viewBox="0 0 100 100" width="40px" height="40px"><path d="M 17.166016 17.728516 C 15.532563 17.779666 14.40625 18.005859 14.40625 18.005859 A 0.50005 0.50005 0 0 0 14.197266 18.896484 C 16.087365 20.333521 16.959942 21.70226 17.71875 23.148438 C 18.477558 24.594614 19.111265 26.135882 20.470703 27.738281 C 22.137159 29.701869 24.021392 30.182467 25.544922 29.867188 C 23.848693 31.434861 22.572438 33.370335 21.8125 35.484375 C 21.612619 32.756991 19.683754 29.938368 15.492188 29.203125 C 9.1316162 28.08845 4.3326934 32.009405 2.1972656 34.101562 A 0.50005 0.50005 0 0 0 2.1484375 34.144531 A 0.50005 0.50005 0 0 0 2.1152344 34.179688 A 0.50005 0.50005 0 0 0 2.1113281 34.183594 A 0.50005 0.50005 0 0 0 2.4863281 35.003906 C 5.7029134 35.18369 7.2469926 36.175045 8.6582031 37.447266 C 10.072012 38.721829 11.336367 40.337472 13.759766 41.505859 C 15.920142 42.547548 18.809173 42.138378 20.875 39.550781 C 20.953755 39.452173 21.001171 39.333794 21.041016 39.210938 C 21.024987 39.47394 21 39.735698 21 40 C 21 43.868133 21.694571 47.057069 23.482422 49.681641 C 25.270272 52.306213 28.09261 54.289348 32.123047 55.925781 C 34.933775 57.067143 36.747392 57.942515 37.738281 58.759766 C 38.729171 59.577016 39 60.204 39 61.5 C 39 63.443755 37.445441 64.998932 35.501953 65 L 31.96875 64.945312 A 1.0001 1.0001 0 0 0 31.953125 64.945312 C 25.857843 64.945312 21.123047 61.21875 21.123047 61.21875 A 1.0001 1.0001 0 0 0 19.511719 61.84375 L 18.011719 71.34375 A 1.0001 1.0001 0 0 0 18.367188 72.273438 C 18.367193 72.273439 24.1 77 32 77 L 35.673828 77 C 40.573518 77 44.451543 74.865579 47.044922 71.935547 C 49.638301 69.005514 51 65.304035 51 61.984375 L 51 59.642578 C 51 55.93527 49.833627 53.204838 48.085938 51.232422 C 46.338246 49.260006 44.071367 48.040072 41.892578 47.070312 C 39.713789 46.100555 37.600407 45.360586 36.148438 44.503906 C 34.696468 43.647226 33.992628 42.886503 34 41.505859 C 34.009142 39.7419 34.590081 38.797904 35.765625 38.085938 C 36.941169 37.37397 38.842091 37 41.279297 37 L 50.982422 37 A 1.0001 1.0001 0 0 0 51.982422 36.001953 L 52 27.001953 A 1.0001 1.0001 0 0 0 51 26 L 35.605469 26 C 32.901798 26 30.459497 26.67027 28.378906 27.810547 C 28.74475 27.210702 28.973951 26.518865 28.998047 25.751953 C 29.045787 24.232597 28.353579 22.510035 26.703125 20.810547 C 24.55616 18.599604 21.482854 17.897982 18.945312 17.75 C 18.310927 17.713005 17.7105 17.711465 17.166016 17.728516 z M 17.714844 18.759766 C 18.049257 18.758235 18.43286 18.767676 18.878906 18.794922 C 21.257115 18.94019 24.106293 19.569802 25.986328 21.505859 C 27.499874 23.064371 28.035559 24.52681 27.998047 25.720703 C 27.967347 26.697799 27.492732 27.462199 26.841797 28.060547 C 25.833038 25.218663 23.900993 22.599654 21.246094 20.738281 A 0.50005 0.50005 0 1 0 20.671875 21.556641 C 23.256268 23.36858 25.149282 25.929692 26.041016 28.654297 C 24.813712 29.253514 23.041525 29.223467 21.232422 27.091797 C 19.97886 25.614196 19.392161 24.182916 18.605469 22.683594 C 18.035731 21.597756 17.222352 20.485067 16.097656 19.371094 L 16.28125 19.419922 L 16.291016 19.421875 L 17.158203 19.712891 L 18.058594 20.078125 L 18.523438 20.03125 L 18.746094 19.621094 L 18.533203 19.205078 L 18.435547 19.152344 L 17.533203 18.785156 L 17.503906 18.775391 L 17.484375 18.769531 C 17.566418 18.767589 17.626154 18.760172 17.714844 18.759766 z M 57 26 A 1.0001 1.0001 0 0 0 56.050781 27.3125 L 61.871094 45.011719 C 61.798082 44.940932 61.730418 44.86896 61.650391 44.800781 A 0.50005 0.50005 0 0 0 61.457031 44.638672 C 60.853017 44.182119 60.1138 43.895315 59.310547 43.798828 C 56.780241 43.494886 53.655242 45.026745 52.414062 48.705078 C 51.159382 52.423166 52.850431 56.592391 56.007812 60.851562 C 56.007812 60.851562 56.009766 60.853516 56.009766 60.853516 A 0.50005 0.50005 0 0 0 56.039062 60.890625 A 0.50005 0.50005 0 0 0 56.039062 60.892578 A 0.50005 0.50005 0 0 0 56.904297 60.435547 C 56.565429 57.577739 58.051923 55.908926 59.587891 54.390625 C 60.400279 53.588618 61.79573 52.025459 62.578125 50.224609 C 62.80366 49.705492 62.967641 49.162798 63.054688 48.611328 L 70.396484 70.933594 L 68.863281 75.693359 A 1.0001 1.0001 0 0 0 69.816406 77 L 80 77 A 1.0001 1.0001 0 0 0 80.951172 76.310547 L 96.951172 27.310547 A 1.0001 1.0001 0 0 0 96 26 L 85.595703 26 A 1.0001 1.0001 0 0 0 84.644531 26.693359 L 76.5 51.982422 L 68.355469 26.693359 A 1.0001 1.0001 0 0 0 67.404297 26 L 57 26 z M 35.605469 28 L 49.998047 28 L 49.984375 35 L 41.279297 35 C 38.651502 35 36.422925 35.349966 34.730469 36.375 C 33.038013 37.400034 32.011858 39.2061 32 41.494141 C 31.98837 43.671997 33.400845 45.20468 35.132812 46.226562 C 36.864781 47.248446 39.004117 47.972493 41.080078 48.896484 C 43.156039 49.820475 45.144097 50.926947 46.589844 52.558594 C 48.035589 54.19024 49 56.340387 49 59.642578 L 49 61.984375 C 49 64.744715 47.810496 68.051908 45.546875 70.609375 C 43.283254 73.166842 40.000138 75 35.673828 75 L 32 75 C 25.362186 75 20.719254 71.49026 20.091797 71.003906 L 20.402344 69.037109 L 20.572266 69.191406 L 20.605469 69.21875 L 21.519531 69.916016 L 21.550781 69.9375 L 22.433594 70.511719 L 22.460938 70.529297 L 23.273438 70.988281 L 23.306641 71.005859 L 24.558594 71.597656 L 24.59375 71.613281 L 25.082031 71.800781 L 25.544922 71.746094 L 25.761719 71.332031 L 25.541016 70.919922 L 25.441406 70.869141 L 24.986328 70.693359 L 24.976562 70.689453 L 23.767578 70.117188 L 22.980469 69.673828 L 22.978516 69.671875 L 22.103516 69.101562 L 22.095703 69.097656 L 21.228516 68.4375 L 20.587891 67.857422 L 21.257812 63.615234 C 22.803925 64.681701 26.430729 66.945314 31.953125 66.945312 L 35.484375 67 A 1.0001 1.0001 0 0 0 35.5 67 C 38.525577 67 41 64.525577 41 61.5 C 41 59.796 40.352876 58.324547 39.009766 57.216797 C 37.666655 56.109047 35.730225 55.232857 32.876953 54.074219 C 29.06539 52.526652 26.636415 50.759116 25.134766 48.554688 C 23.633116 46.350259 23 43.631867 23 40 C 23 33.926292 28.024672 28 35.605469 28 z M 58.380859 28 L 66.675781 28 L 75.449219 55.242188 L 71.4375 67.699219 L 58.380859 28 z M 86.326172 28 L 94.621094 28 L 79.275391 75 L 71.1875 75 L 72.396484 71.25 A 1.0002638 1.0002638 0 0 0 72.404297 71.21875 L 77.380859 55.773438 A 1.0001 1.0001 0 0 0 77.505859 55.384766 L 86.326172 28 z M 39.5 30 A 0.50005 0.50005 0 1 0 39.5 31 L 43.5 31 A 0.50005 0.50005 0 1 0 43.5 30 L 39.5 30 z M 46.5 30 A 0.50005 0.50005 0 1 0 46.5 31 L 47.5 31 A 0.50005 0.50005 0 1 0 47.5 30 L 46.5 30 z M 13.851562 30.023438 C 14.329899 30.046462 14.819172 30.099676 15.320312 30.1875 C 19.898672 30.990591 21.323217 34.388264 20.861328 36.978516 C 20.563833 36.577929 20.206725 36.199229 19.820312 35.835938 A 0.50063452 0.50063452 0 0 0 19.589844 35.554688 C 19.538155 35.525666 19.487112 35.506879 19.435547 35.480469 C 17.870819 34.155503 15.742053 33.131703 13.373047 32.570312 C 10.869728 31.977094 8.1454628 31.955263 5.6328125 32.630859 C 7.7217849 31.190142 10.503209 29.862266 13.851562 30.023438 z M 9.0996094 33.099609 C 10.459035 33.07412 11.832754 33.232574 13.142578 33.542969 C 14.564828 33.880004 15.881402 34.408911 17.027344 35.048828 C 15.326698 35.248705 14.070313 36.361328 14.070312 36.361328 A 0.50005 0.50005 0 1 0 14.740234 37.103516 C 14.740234 37.103516 16.732189 35.307045 18.882812 36.324219 C 19.529069 36.87512 20.066557 37.462142 20.429688 38.072266 C 20.300099 38.348298 20.275028 38.698804 20.09375 38.925781 C 18.271577 41.208184 15.960983 41.45778 14.193359 40.605469 C 11.972758 39.534856 10.826363 38.055562 9.3261719 36.703125 C 8.0918719 35.590391 6.3845242 34.742845 3.9882812 34.324219 C 5.1646529 33.756785 6.4176732 33.338062 7.7480469 33.1875 C 8.1952173 33.136893 8.6464676 33.108106 9.0996094 33.099609 z M 29.494141 41.023438 A 0.50005 0.50005 0 0 0 29 41.527344 C 28.9936 43.073157 29.472026 44.406135 30.224609 45.519531 A 0.50005 0.50005 0 1 0 31.052734 44.960938 C 30.395318 43.988334 29.994427 42.871437 30 41.53125 A 0.50005 0.50005 0 0 0 29.494141 41.023438 z M 58.402344 44.791016 C 58.672752 44.774915 58.937085 44.781567 59.191406 44.810547 C 59.580688 44.854906 59.94027 44.955828 60.265625 45.097656 C 55.796753 47.857402 54.011614 52.244594 54.304688 56.072266 C 53.078475 53.521776 52.647725 51.13811 53.361328 49.023438 C 54.329358 46.154604 56.509488 44.903719 58.402344 44.791016 z M 61.171875 45.716797 C 61.757221 46.272979 62.034688 46.862076 62.107422 47.5 C 62.190352 48.227394 62.007532 49.031097 61.662109 49.826172 C 60.971255 51.416322 59.637377 52.936694 58.884766 53.679688 C 57.620494 54.929417 56.289017 56.54929 55.988281 58.810547 C 54.692255 55.815549 55.088343 51.581569 57.978516 48.294922 C 58.003343 48.521928 58.028304 48.750444 58.0625 48.970703 C 58.15897 49.592067 58.283203 50.115234 58.283203 50.115234 A 0.50005 0.50005 0 1 0 59.255859 49.884766 C 59.255859 49.884766 59.140309 49.394995 59.050781 48.818359 C 58.961251 48.241724 58.940037 47.530595 58.986328 47.373047 A 0.50005 0.50005 0 0 0 59.005859 47.257812 C 59.637729 46.69791 60.360301 46.182568 61.171875 45.716797 z M 32.853516 47.009766 A 0.50005 0.50005 0 0 0 32.583984 47.914062 C 33.947417 48.92859 35.480568 49.673157 36.802734 50.242188 C 38.124901 50.811217 39.266341 51.225503 39.710938 51.474609 A 0.50005 0.50005 0 1 0 40.201172 50.603516 C 39.567768 50.248622 38.485599 49.876735 37.197266 49.322266 C 35.908932 48.767796 34.444208 48.050801 33.181641 47.111328 A 0.50005 0.50005 0 0 0 32.853516 47.009766 z M 68.871094 51.453125 A 0.50005 0.50005 0 0 0 68.419922 52.119141 L 71.203125 60.410156 A 0.50090331 0.50090331 0 1 0 72.152344 60.089844 L 69.367188 51.800781 A 0.50005 0.50005 0 0 0 68.871094 51.453125 z M 80.46875 53.501953 L 80.070312 53.746094 L 80.023438 53.847656 L 79.375 55.873047 L 79.457031 56.332031 L 79.884766 56.523438 L 80.283203 56.279297 L 80.328125 56.177734 L 80.976562 54.152344 L 80.894531 53.693359 L 80.46875 53.501953 z M 78.460938 58.732422 L 76.023438 66.347656 L 76.976562 66.652344 L 79.414062 59.037109 L 78.460938 58.732422 z M 75.984375 69 C 75.364708 69 74.837017 69.249518 74.498047 69.630859 C 74.159077 70.0122 74 70.502264 74 70.984375 C 74 71.466486 74.159077 71.954597 74.498047 72.335938 C 74.837016 72.717277 75.364708 72.96875 75.984375 72.96875 C 76.604042 72.96875 77.131733 72.717277 77.470703 72.335938 C 77.809673 71.954596 77.96875 71.466486 77.96875 70.984375 C 77.96875 70.502264 77.809673 70.0122 77.470703 69.630859 C 77.131734 69.249518 76.604042 69 75.984375 69 z M 75.984375 70 C 76.354041 70 76.566959 70.121716 76.722656 70.296875 C 76.878353 70.472034 76.96875 70.724486 76.96875 70.984375 C 76.96875 71.244264 76.87835 71.496716 76.722656 71.671875 C 76.566959 71.847034 76.354041 71.96875 75.984375 71.96875 C 75.614709 71.96875 75.399838 71.847034 75.244141 71.671875 C 75.088444 71.496716 75 71.244264 75 70.984375 C 75 70.724486 75.08844 70.472034 75.244141 70.296875 C 75.399837 70.121716 75.614709 70 75.984375 70 z"/></svg>